<svg xmlns="http://www.w3.org/2000/svg" width="247" height="178" viewBox="0 0 247 178" fill="none">
  <path d="M15.4467 113.979L18.2825 115.855L2.83559 139.209L-0.000213384 137.333L15.4467 113.979ZM7.00589 141.967L1.56782 138.37L3.44351 135.534L8.88158 139.131C10.1938 139.999 11.5273 140.594 12.8819 140.914C14.2513 141.212 15.5753 141.241 16.8539 140.999C18.1473 140.736 19.3657 140.199 20.5091 139.389C21.6526 138.578 22.673 137.495 23.5704 136.138C24.4677 134.781 25.0656 133.418 25.3638 132.049C25.6621 130.68 25.6721 129.359 25.3938 128.088C25.1303 126.795 24.586 125.588 23.7609 124.466C22.9506 123.323 21.8893 122.317 20.5771 121.449L15.139 117.852L17.0147 115.017L22.4528 118.613C24.7214 120.114 26.4106 121.935 27.5204 124.076C28.6302 126.216 29.1044 128.496 28.9431 130.915C28.7965 133.312 27.9509 135.678 26.4062 138.014C24.8615 140.349 23.0076 142.064 20.8445 143.159C18.6962 144.232 16.4198 144.677 14.0154 144.493C11.611 144.31 9.27453 143.468 7.00589 141.967ZM29.0121 155.122C27.4603 154.412 26.2447 153.415 25.3652 152.133C24.5212 150.838 24.0593 149.38 23.9797 147.76C23.9243 146.151 24.2906 144.485 25.0786 142.764C25.8776 141.018 26.9163 139.646 28.1945 138.647C29.497 137.66 30.933 137.085 32.5026 136.924C34.0964 136.773 35.7177 137.076 37.3666 137.83C39.0154 138.585 40.2608 139.58 41.1028 140.816C41.9802 142.039 42.44 143.437 42.4823 145.011C42.5245 146.584 42.1405 148.256 41.3304 150.026C41.2527 150.196 41.1573 150.372 41.0443 150.555C40.9666 150.725 40.9166 150.834 40.8945 150.883L26.6005 144.34L27.7326 141.867L39.7351 147.361L37.8054 148.501C37.9337 148.413 38.0896 148.264 38.2734 148.055C38.4682 147.822 38.6044 147.62 38.6821 147.45C39.1371 146.456 39.325 145.501 39.2458 144.585C39.1908 143.68 38.906 142.861 38.3915 142.127C37.877 141.392 37.1469 140.809 36.2012 140.376C35.0859 139.866 34.0171 139.67 32.995 139.788C32.0082 139.894 31.0912 140.296 30.2442 140.993C29.4324 141.677 28.7203 142.656 28.1079 143.93C27.5086 145.24 27.2042 146.449 27.1946 147.559C27.1851 148.67 27.4694 149.65 28.0477 150.501C28.6259 151.353 29.4848 152.039 30.6244 152.561C31.764 153.082 32.8813 153.3 33.9762 153.215C35.0821 153.105 36.1713 152.68 37.2436 151.939L38.9252 154.512C37.4086 155.519 35.817 156.081 34.1504 156.198C32.5192 156.302 30.8065 155.943 29.0121 155.122ZM43.9834 154.887C44.1676 155.534 44.4148 156.16 44.725 156.763C45.0352 157.367 45.4374 157.903 45.9316 158.369C46.4594 158.819 47.0787 159.158 47.7896 159.386C48.6528 159.664 49.3868 159.689 49.9915 159.464C50.6298 159.22 51.059 158.756 51.2793 158.071C51.475 157.461 51.435 156.888 51.1593 156.352C50.9171 155.798 50.5362 155.283 50.0166 154.808C49.5051 154.308 48.9474 153.82 48.3435 153.346C47.6797 152.797 47.0195 152.193 46.3629 151.534C45.7399 150.857 45.2678 150.104 44.9467 149.272C44.6592 148.424 44.6785 147.492 45.0047 146.476C45.3391 145.435 45.883 144.657 46.6364 144.143C47.4151 143.637 48.2891 143.358 49.2584 143.305C50.253 143.26 51.22 143.389 52.1594 143.691C53.0988 143.993 53.9258 144.426 54.6403 144.992C55.3803 145.566 55.9861 146.208 56.4577 146.92C56.9293 147.632 57.2368 148.375 57.3802 149.149L54.4413 149.927C54.1709 149.112 53.737 148.371 53.1393 147.703C52.5671 147.043 51.824 146.566 50.91 146.272C50.2753 146.068 49.6845 146.033 49.1378 146.165C48.5911 146.298 48.224 146.656 48.0364 147.24C47.8896 147.697 47.9368 148.16 48.1781 148.63C48.4193 149.099 48.7744 149.564 49.2432 150.022C49.7121 150.481 50.2104 150.935 50.7381 151.385C51.6232 152.117 52.4072 152.859 53.09 153.611C53.7811 154.337 54.2618 155.107 54.5321 155.923C54.8278 156.746 54.8085 157.678 54.4741 158.719C53.9848 160.242 53.0184 161.332 51.5751 161.989C50.1571 162.654 48.5468 162.697 46.7442 162.118C45.5763 161.742 44.5879 161.201 43.7791 160.493C42.9783 159.759 42.3539 158.957 41.9059 158.084C41.4832 157.22 41.2169 156.393 41.1071 155.601L43.9834 154.887ZM62.6193 139.315C62.7528 138.716 63.0742 138.255 63.5836 137.932C64.1189 137.614 64.6729 137.519 65.2455 137.647C65.8441 137.78 66.3052 138.102 66.6287 138.611C66.9523 139.12 67.0473 139.674 66.9137 140.273C66.786 140.845 66.4646 141.307 65.9494 141.656C65.4401 141.98 64.8861 142.075 64.2875 141.941C63.7149 141.813 63.2538 141.492 62.9043 140.977C62.5865 140.441 62.4915 139.887 62.6193 139.315ZM61.5502 146.863L64.6734 147.56L60.6674 165.518L57.5441 164.822L61.5502 146.863ZM65.7807 167.693L68.9995 168.064C68.8988 168.938 69.0442 169.773 69.4356 170.57C69.824 171.393 70.4294 172.08 71.2518 172.631C72.0711 173.209 73.0768 173.566 74.269 173.704C75.1962 173.81 76.1361 173.69 77.0886 173.344C78.0412 172.997 78.8653 172.367 79.561 171.454C80.2801 170.571 80.7281 169.361 80.905 167.824L82.964 149.942L86.143 150.308L84.084 168.19C83.8431 170.283 83.2046 171.981 82.1687 173.284C81.1298 174.614 79.8804 175.558 78.4205 176.114C76.9605 176.671 75.4623 176.861 73.9258 176.684C72.1509 176.479 70.6127 175.967 69.3114 175.146C68.0366 174.328 67.0852 173.266 66.4573 171.959C65.8263 170.678 65.6008 169.256 65.7807 167.693ZM66.6127 157.32C66.8415 155.333 67.4473 153.685 68.4302 152.376C69.4162 151.04 70.6422 150.067 72.1082 149.457C73.5742 148.848 75.1284 148.637 76.7709 148.826C78.3074 149.003 79.601 149.542 80.6517 150.441C81.7024 151.34 82.4633 152.542 82.9344 154.046C83.435 155.526 83.5709 157.26 83.3422 159.247C83.1165 161.207 82.5901 162.864 81.7631 164.219C80.9626 165.576 79.9485 166.573 78.7209 167.21C77.4933 167.847 76.1113 168.077 74.5747 167.9C72.9323 167.711 71.4665 167.153 70.1774 166.226C68.8883 165.3 67.9154 164.074 67.2589 162.548C66.6024 161.023 66.387 159.281 66.6127 157.32ZM69.8314 157.691C69.6698 159.095 69.8107 160.319 70.2541 161.363C70.7241 162.411 71.4069 163.241 72.3027 163.854C73.1984 164.467 74.2026 164.838 75.3153 164.966C76.2425 165.073 77.1854 164.926 78.1441 164.527C79.1028 164.127 79.9299 163.471 80.6256 162.558C81.3213 161.644 81.75 160.486 81.9116 159.082C82.0336 158.022 81.9682 157.075 81.7153 156.241C81.4655 155.38 81.0812 154.638 80.5624 154.014C80.0701 153.394 79.4964 152.898 78.8412 152.528C78.1859 152.157 77.5139 151.932 76.8252 151.853C75.7125 151.724 74.6504 151.857 73.6387 152.251C72.627 152.644 71.7734 153.297 71.0777 154.211C70.4085 155.127 69.9931 156.287 69.8314 157.691ZM101.297 157.304C101.255 155.785 100.89 154.648 100.203 153.893C99.515 153.138 98.5314 152.779 97.2519 152.814C96.3189 152.839 95.498 153.062 94.7893 153.482C94.1064 153.874 93.5746 154.422 93.1938 155.126C92.8397 155.829 92.675 156.634 92.6999 157.541L93.0075 168.736L89.8087 168.824L89.3034 150.431L92.5022 150.343L92.5813 153.222C93.1637 152.086 93.9007 151.238 94.7923 150.68C95.7107 150.122 96.7696 149.826 97.9692 149.793C99.9151 149.739 101.466 150.35 102.621 151.626C103.803 152.874 104.424 154.604 104.485 156.817L104.803 168.412L101.604 168.5L101.297 157.304ZM132.288 151.744L131.42 148.664L143.931 145.135C144.46 147.009 144.681 148.872 144.594 150.725C144.5 152.553 144.085 154.276 143.351 155.897C142.617 157.517 141.55 158.94 140.15 160.166C138.769 161.359 137.051 162.245 134.998 162.824C133.047 163.375 131.144 163.551 129.288 163.355C127.424 163.132 125.702 162.579 124.123 161.694C122.536 160.784 121.157 159.58 119.987 158.081C118.842 156.576 117.987 154.822 117.422 152.82C116.857 150.818 116.67 148.876 116.859 146.994C117.075 145.105 117.624 143.37 118.509 141.791C119.386 140.186 120.565 138.814 122.045 137.676C123.517 136.513 125.229 135.656 127.18 135.106C128.848 134.635 130.437 134.423 131.946 134.468C133.48 134.506 134.919 134.793 136.261 135.329C137.629 135.857 138.876 136.642 140.001 137.682L138.288 140.451C137.036 139.253 135.54 138.469 133.801 138.101C132.055 137.707 130.156 137.799 128.103 138.378C126.203 138.914 124.611 139.848 123.324 141.181C122.037 142.513 121.157 144.106 120.682 145.957C120.225 147.776 120.293 149.738 120.887 151.843C121.473 153.922 122.44 155.63 123.787 156.968C125.16 158.299 126.743 159.196 128.536 159.66C130.33 160.124 132.176 160.088 134.075 159.552C135.41 159.176 136.549 158.647 137.492 157.965C138.455 157.25 139.219 156.425 139.787 155.489C140.354 154.553 140.751 153.555 140.978 152.493C141.231 151.424 141.324 150.331 141.258 149.214L132.288 151.744ZM147.597 138.999L155.138 155.783L152.219 157.094L144.678 140.31L147.597 138.999ZM154.111 139.931C153.591 139.814 153.145 139.766 152.774 139.786C152.393 139.782 151.958 139.889 151.472 140.108C150.742 140.436 150.253 140.875 150.003 141.426C149.753 141.976 149.686 142.606 149.799 143.315C149.938 144.013 150.187 144.764 150.548 145.566L149.234 146.156C148.633 144.819 148.334 143.535 148.337 142.306C148.354 141.041 148.603 139.935 149.083 138.989C149.564 138.042 150.194 137.393 150.972 137.044C151.58 136.77 152.178 136.604 152.765 136.545C153.366 136.451 153.989 136.536 154.635 136.801L154.111 139.931ZM163.088 145.803C163.412 146.355 163.814 146.753 164.297 146.996C164.765 147.216 165.302 147.288 165.906 147.212C166.52 147.1 167.196 146.829 167.932 146.397C168.853 145.859 169.589 145.242 170.141 144.548C170.692 143.855 170.989 143.094 171.03 142.267C171.094 141.426 170.836 140.511 170.257 139.521L171.82 140.924C172.412 141.936 172.648 142.973 172.527 144.032C172.415 145.056 172.025 146.026 171.356 146.942C170.674 147.836 169.781 148.606 168.677 149.253C167.595 149.886 166.532 150.261 165.488 150.377C164.43 150.471 163.47 150.308 162.605 149.887C161.764 149.452 161.06 148.752 160.494 147.785C159.767 146.542 159.467 145.343 159.593 144.187C159.707 143.009 160.148 141.916 160.919 140.909C161.712 139.888 162.741 139.008 164.007 138.267C165.019 137.674 165.963 137.307 166.838 137.165C167.723 136.987 168.485 136.943 169.124 137.032C169.75 137.098 170.204 137.188 170.487 137.301L171.436 138.923C170.331 138.829 169.301 138.891 168.347 139.109C167.38 139.305 166.39 139.699 165.378 140.292C164.457 140.83 163.76 141.408 163.287 142.025C162.837 142.629 162.597 143.248 162.567 143.883C162.537 144.519 162.711 145.159 163.088 145.803ZM158.703 138.312L156.124 136.994C156.467 136.207 157.016 135.298 157.773 134.268C158.53 133.238 159.621 132.306 161.048 131.47C162.268 130.756 163.441 130.332 164.568 130.198C165.704 130.027 166.734 130.151 167.658 130.568C168.605 130.971 169.381 131.691 169.987 132.726L176.656 144.118L173.894 145.735L167.226 134.343C166.754 133.538 166.059 133.141 165.139 133.154C164.229 133.131 163.337 133.375 162.463 133.887C161.703 134.331 161.073 134.839 160.573 135.41C160.06 135.958 159.654 136.504 159.355 137.05C159.066 137.559 158.849 137.98 158.703 138.312ZM162.328 120.988L159.145 129.803L156.986 129.677L158.931 121.123L162.328 120.988ZM169.173 127.099L176.604 121.676L178.373 124.099L170.942 129.523L169.173 127.099ZM171.064 114.627C170.581 114.418 170.158 114.38 169.793 114.514C169.435 114.611 169.126 114.754 168.868 114.942C168.545 115.178 168.335 115.479 168.24 115.846C168.15 116.176 168.198 116.603 168.383 117.128C168.568 117.653 168.92 118.271 169.439 118.982L184.059 139.015L181.474 140.901L166.618 120.545C165.754 119.361 165.219 118.266 165.013 117.26C164.808 116.255 164.883 115.341 165.241 114.519C165.604 113.66 166.238 112.9 167.143 112.24C167.617 111.894 168.084 111.652 168.544 111.514C169.005 111.376 169.435 111.309 169.835 111.315C170.257 111.304 170.621 111.352 170.929 111.457L171.064 114.627ZM173.485 114.361C173.089 113.893 172.917 113.358 172.967 112.757C173.038 112.138 173.298 111.64 173.746 111.261C174.215 110.865 174.75 110.693 175.351 110.743C175.952 110.794 176.451 111.054 176.846 111.522C177.225 111.97 177.398 112.505 177.364 113.127C177.313 113.728 177.054 114.227 176.585 114.622C176.137 115.001 175.602 115.174 174.981 115.14C174.362 115.069 173.864 114.81 173.485 114.361ZM178.848 119.78L181.292 117.715L193.166 131.772L190.721 133.837L178.848 119.78ZM192.433 119.849C193.349 120.744 194.345 121.346 195.424 121.654C196.521 121.944 197.605 121.96 198.677 121.703C199.749 121.408 200.704 120.831 201.543 119.973C202.233 119.268 202.771 118.508 203.158 117.693C203.544 116.84 203.78 116.007 203.865 115.195C203.932 114.365 203.848 113.649 203.615 113.048L206.475 115.845C206.561 116.825 206.338 117.893 205.804 119.049C205.269 120.167 204.564 121.175 203.688 122.071C202.439 123.348 201.015 124.213 199.418 124.664C197.82 125.116 196.208 125.144 194.582 124.747C192.955 124.313 191.484 123.452 190.168 122.166C188.834 120.861 187.94 119.409 187.489 117.811C187.056 116.195 187.047 114.582 187.463 112.975C187.879 111.367 188.711 109.925 189.96 108.647C190.837 107.751 191.837 107.033 192.963 106.492C194.088 105.914 195.141 105.657 196.122 105.721L198.982 108.518C198.357 108.28 197.64 108.212 196.83 108.316C196.02 108.419 195.203 108.683 194.378 109.107C193.553 109.493 192.795 110.039 192.105 110.745C191.266 111.603 190.711 112.571 190.441 113.649C190.188 114.707 190.229 115.791 190.562 116.9C190.894 117.971 191.518 118.954 192.433 119.849ZM202.72 109.18C201.225 108.063 200.147 106.743 199.488 105.219C198.845 103.673 198.623 102.076 198.823 100.428C199.022 98.7795 199.657 97.2395 200.726 95.8081C201.811 94.3553 203.107 93.31 204.616 92.6724C206.14 92.0134 207.726 91.7836 209.374 91.983C211.039 92.161 212.618 92.8085 214.114 93.9256C215.588 95.0267 216.658 96.3579 217.322 97.9192C217.981 99.4433 218.211 101.029 218.011 102.678C217.828 104.305 217.194 105.845 216.108 107.298C215.039 108.729 213.743 109.774 212.219 110.433C210.695 111.092 209.1 111.333 207.436 111.155C205.766 110.939 204.194 110.281 202.72 109.18ZM204.659 106.584C205.685 107.35 206.752 107.815 207.862 107.978C208.987 108.12 210.065 107.992 211.093 107.596C212.116 107.162 212.987 106.464 213.705 105.502C214.423 104.541 214.837 103.519 214.947 102.436C215.051 101.316 214.868 100.247 214.397 99.229C213.941 98.1899 213.201 97.2874 212.175 96.5214C211.15 95.7555 210.074 95.3016 208.948 95.1598C207.817 94.9807 206.74 95.1082 205.717 95.5422C204.71 95.9549 203.847 96.6419 203.129 97.6033C202.411 98.5648 201.989 99.5976 201.863 100.702C201.754 101.785 201.937 102.854 202.414 103.909C202.885 104.927 203.634 105.818 204.659 106.584ZM228.704 87.2566L221.169 69.4271C220.808 68.5961 220.422 67.8557 220.01 67.2061C219.584 66.5213 219.11 65.9462 218.587 65.4808C218.051 64.9802 217.442 64.5784 216.759 64.2755C216.199 64.0267 215.601 63.893 214.968 63.8744C214.334 63.8558 213.701 63.9685 213.067 64.2125C212.445 64.4322 211.864 64.7872 211.326 65.2775C210.787 65.7679 210.345 66.4031 209.999 67.183C209.512 68.2799 209.346 69.344 209.501 70.3755C209.642 71.3719 210.096 72.2881 210.863 73.1244C211.605 73.9498 212.622 74.6492 213.914 75.2225L212.535 78.3302C210.707 77.5189 209.256 76.4813 208.183 75.2174C207.086 73.9427 206.435 72.5162 206.232 70.9377C206.014 69.3241 206.295 67.6399 207.074 65.8849C207.701 64.4712 208.486 63.3607 209.427 62.5533C210.345 61.7352 211.327 61.1647 212.375 60.8419C213.398 60.5084 214.407 60.3724 215.401 60.4342C216.394 60.4959 217.281 60.6999 218.061 61.046C219.377 61.6302 220.541 62.5258 221.551 63.7328C222.562 64.9399 223.357 66.2702 223.937 67.7239L228.618 79.5604L233.795 67.8974L236.719 69.1955L228.704 87.2566ZM225.401 58.7077C226.972 59.1328 228.468 59.3721 229.89 59.4255C231.286 59.472 232.554 59.3317 233.692 59.0044C234.805 58.6702 235.743 58.1645 236.506 57.4871C237.251 56.7771 237.763 55.9072 238.041 54.8776C238.327 53.8223 238.324 52.8131 238.032 51.85C237.715 50.88 237.16 49.9701 236.368 49.1202C235.55 48.2634 234.526 47.5029 233.297 46.8386C232.042 46.1674 230.63 45.6192 229.06 45.1942C227.49 44.7691 226.006 44.5333 224.61 44.4868C223.188 44.4333 221.921 44.5737 220.808 44.9079C219.669 45.2351 218.731 45.7409 217.994 46.4252C217.23 47.1026 216.705 47.9689 216.42 49.0242C216.141 50.0539 216.157 51.0665 216.468 52.0623C216.759 53.0253 217.314 53.9353 218.132 54.7921C218.924 55.6419 219.948 56.4025 221.203 57.0737C222.432 57.738 223.831 58.2827 225.401 58.7077ZM224.513 61.9896C221.81 61.2579 219.531 60.1851 217.676 58.7713C215.821 57.3574 214.504 55.7438 213.724 53.9303C212.925 52.0841 212.794 50.17 213.331 48.1881C213.867 46.2061 214.943 44.6324 216.557 43.4669C218.152 42.2688 220.107 41.5273 222.422 41.2423C224.737 40.9573 227.246 41.1806 229.948 41.9123C232.651 42.644 234.93 43.7167 236.785 45.1306C238.64 46.5444 239.967 48.1745 240.765 50.0206C241.545 51.8341 241.667 53.7318 241.13 55.7138C240.594 57.6958 239.528 59.2859 237.933 60.484C236.319 61.6494 234.354 62.3746 232.039 62.6596C229.724 62.9446 227.216 62.7213 224.513 61.9896ZM243.958 43.2712L231.4 28.5418C230.805 27.8581 230.214 27.2686 229.625 26.7733C229.013 26.2486 228.388 25.8431 227.749 25.5569C227.087 25.2412 226.385 25.0418 225.643 24.9587C225.033 24.8905 224.423 24.9429 223.814 25.1161C223.204 25.2893 222.634 25.5877 222.103 26.0113C221.576 26.4084 221.129 26.9219 220.764 27.5518C220.398 28.1817 220.168 28.9206 220.073 29.7686C219.939 30.9612 220.102 32.0259 220.56 32.9627C220.995 33.8701 221.704 34.607 222.687 35.1733C223.644 35.7366 224.824 36.0969 226.229 36.2542L225.851 39.6331C223.863 39.4104 222.167 38.8583 220.763 37.9765C219.333 37.0918 218.283 35.9277 217.612 34.4841C216.919 33.0111 216.679 31.3205 216.893 29.4124C217.065 27.8754 217.478 26.58 218.133 25.5263C218.761 24.4697 219.526 23.6296 220.428 23.0061C221.303 22.3796 222.223 21.9461 223.19 21.7055C224.156 21.4648 225.063 21.392 225.911 21.487C227.342 21.6473 228.721 22.1506 230.048 22.9969C231.376 23.8433 232.535 24.872 233.526 26.0833L241.557 35.9585L242.977 23.2778L246.158 23.634L243.958 43.2712ZM237.019 16.5504C238.298 16.5043 239.421 16.1971 240.388 15.6286C241.327 15.0344 242.06 14.2609 242.586 13.308C243.111 12.3285 243.352 11.2391 243.309 10.0399C243.266 8.84068 242.948 7.78478 242.354 6.87219C241.76 5.93296 240.974 5.21411 239.995 4.71565C238.989 4.1915 237.846 3.95245 236.567 3.99849C235.288 4.04453 234.166 4.36512 233.2 4.96024C232.206 5.52968 231.447 6.30416 230.922 7.28368C230.396 8.23656 230.154 9.3126 230.197 10.5118C230.241 11.7111 230.559 12.7803 231.153 13.7195C231.747 14.6321 232.56 15.35 233.592 15.8732C234.598 16.3707 235.74 16.5964 237.019 16.5504ZM217.945 9.27174L217.791 4.99451L229.659 13.333L229.467 13.5801C228.782 13.0711 228.32 12.474 228.082 11.7887C227.843 11.0769 227.707 10.2679 227.674 9.36183C227.633 8.21591 227.821 7.14178 228.239 6.13945C228.655 5.11046 229.263 4.20801 230.063 3.43209C230.861 2.62952 231.812 1.9949 232.916 1.52822C233.993 1.06251 235.172 0.80663 236.451 0.760589C238.369 0.691527 240.064 1.05749 241.533 1.85847C243.002 2.63281 244.162 3.72512 245.014 5.13542C245.864 6.51906 246.322 8.11696 246.387 9.92912C246.451 11.7146 246.109 13.3413 245.362 14.8092C244.614 16.277 243.536 17.4632 242.128 18.3678C240.718 19.2457 239.054 19.7192 237.136 19.7883C235.99 19.8295 234.918 19.708 233.92 19.4237C232.923 19.1394 232.041 18.7442 231.276 18.238L217.945 9.27174Z" fill="#F2709E"/>
</svg>
