<svg preserveAspectRatio="none" width="100%" height="100%" overflow="visible" style="display: block;" viewBox="0 0 53 53" fill="none" xmlns="http://www.w3.org/2000/svg">
<g id="diamond-line" clip-path="url(#clip0_0_19)">
<path id="Vector" d="M46.4882 21.4177L47.0823 19.99C48.1411 17.4444 50.0481 15.4176 52.4278 14.3088L54.2578 13.4561C55.2474 12.9951 55.2474 11.4865 54.2578 11.0254L52.5302 10.2204C50.0893 9.0831 48.1481 6.98132 47.1073 4.34924L46.4974 2.80643C46.0724 1.73119 44.6549 1.73119 44.2297 2.80643L43.6197 4.34924C42.5792 6.98132 40.638 9.0831 38.1971 10.2204L36.4695 11.0254C35.4799 11.4865 35.4799 12.9951 36.4695 13.4561L38.2995 14.3088C40.6792 15.4176 42.5862 17.4444 43.645 19.99L44.2388 21.4177C44.6737 22.4628 46.0536 22.4628 46.4882 21.4177ZM11.6364 14.619C10.8781 14.619 10.1641 14.9931 9.70909 15.6286L2.48182 25.7238C1.79122 26.6884 1.84845 28.0301 2.61844 28.9265L24.3002 54.1646C24.7572 54.6964 25.4079 55 26.0909 55C26.7739 55 27.4248 54.6964 27.8816 54.1646L49.5634 28.9265L45.9821 25.5497L26.0909 48.7036L7.52489 27.0922L12.8409 19.6667H33.3182V14.619H11.6364Z" fill="url(#paint0_linear_0_19)"/>
</g>
<defs>
<linearGradient id="paint0_linear_0_19" x1="28.5" y1="2" x2="28.5" y2="55" gradientUnits="userSpaceOnUse">
<stop stop-color="#FF5E97"/>
<stop offset="1" stop-color="#F6904F"/>
</linearGradient>
<clipPath id="clip0_0_19">
<rect width="53" height="53" fill="white"/>
</clipPath>
</defs>
</svg>
