<svg preserveAspectRatio="none" width="100%" height="100%" overflow="visible" style="display: block;" viewBox="0 0 44.35 44.35" fill="none" xmlns="http://www.w3.org/2000/svg">
<path id="Vector" opacity="0.65" d="M22.175 44.35C9.92808 44.35 0 34.4218 0 22.175C0 9.92808 9.92808 0 22.175 0C34.4218 0 44.35 9.92808 44.35 22.175C44.35 34.4218 34.4218 44.35 22.175 44.35ZM17.097 39.1775C14.9624 34.6504 13.6539 29.6573 13.3656 24.3925H4.57224C5.45062 31.4364 10.4586 37.1979 17.097 39.1775ZM17.8081 24.3925C18.1416 29.8005 19.6865 34.8806 22.175 39.3651C24.6635 34.8806 26.2084 29.8005 26.5419 24.3925H17.8081ZM39.7777 24.3925H30.9845C30.6962 29.6573 29.3876 34.6504 27.2531 39.1775C33.8914 37.1979 38.8994 31.4364 39.7777 24.3925ZM4.57224 19.9575H13.3656C13.6539 14.6926 14.9624 9.6995 17.097 5.17245C10.4586 7.15217 5.45062 12.9136 4.57224 19.9575ZM17.8081 19.9575H26.5419C26.2084 14.5495 24.6635 9.46928 22.175 4.98492C19.6865 9.46928 18.1416 14.5495 17.8081 19.9575ZM27.2531 5.17245C29.3876 9.6995 30.6962 14.6926 30.9845 19.9575H39.7777C38.8994 12.9136 33.8914 7.15217 27.2531 5.17245Z" fill="url(#paint0_linear_0_12)"/>
<defs>
<linearGradient id="paint0_linear_0_12" x1="22.175" y1="0" x2="22.175" y2="44.35" gradientUnits="userSpaceOnUse">
<stop stop-color="#FF5E97"/>
<stop offset="1" stop-color="#F6904F"/>
</linearGradient>
</defs>
</svg>
