<svg preserveAspectRatio="none" width="100%" height="100%" overflow="visible" style="display: block;" viewBox="0 0 53 53" fill="none" xmlns="http://www.w3.org/2000/svg">
<g id="verified-badge-line">
<path id="Vector" opacity="0.65" d="M22.0992 4.64556C19.0039 3.6436 15.6393 5.0373 14.1591 7.93441L12.3797 11.4173C12.1683 11.8312 11.8317 12.1677 11.4179 12.3792L7.93494 14.1586C5.03783 15.6387 3.64415 19.0034 4.64609 22.0986L5.85065 25.8196C5.99377 26.2617 5.99377 26.7378 5.85065 27.1799L4.64609 30.901C3.64415 33.9962 5.03785 37.3608 7.93494 38.8408L11.4179 40.6203C11.8317 40.8319 12.1683 41.1684 12.3797 41.5823L14.1591 45.065C15.6393 47.9621 19.0039 49.3558 22.0992 48.3539L25.8203 47.1495C26.2624 47.0064 26.7383 47.0064 27.1804 47.1495L30.9014 48.3539C33.9966 49.3558 37.3612 47.9621 38.8415 45.065L40.621 41.5823C40.8323 41.1684 41.1689 40.8319 41.5827 40.6203L45.0657 38.8408C47.9628 37.3608 49.3565 33.9962 48.3545 30.901L47.1499 27.1799C47.0068 26.7378 47.0068 26.2617 47.1499 25.8196L48.3545 22.0986C49.3565 19.0034 47.9628 15.6387 45.0657 14.1586L41.5827 12.3792C41.1689 12.1677 40.8323 11.8311 40.621 11.4173L38.8415 7.93441C37.3612 5.0373 33.9966 3.6436 30.9014 4.64556L27.1804 5.8501C26.7383 5.99322 26.2624 5.99322 25.8203 5.8501L22.0992 4.64556ZM18.0922 9.94382C18.5856 8.97811 19.7072 8.51357 20.7389 8.84753L24.4599 10.0521C25.7863 10.4815 27.2144 10.4815 28.5407 10.0521L32.2618 8.84753C33.2935 8.51357 34.4149 8.97811 34.9084 9.94382L36.6877 13.4268C37.3222 14.6682 38.3318 15.678 39.5733 16.3123L43.0563 18.0917C44.022 18.5851 44.4864 19.7066 44.1525 20.7384L42.9479 24.4595C42.5186 25.7858 42.5186 27.2137 42.9479 28.5401L44.1525 32.2611C44.4864 33.2928 44.022 34.4144 43.0563 34.9078L39.5733 36.6873C38.3318 37.3215 37.3222 38.3314 36.6877 39.5727L34.9084 43.0557C34.4149 44.0214 33.2935 44.486 32.2618 44.1519L28.5407 42.9475C27.2144 42.5182 25.7863 42.5182 24.4599 42.9475L20.7389 44.1519C19.7072 44.486 18.5856 44.0214 18.0922 43.0557L16.3128 39.5727C15.6785 38.3314 14.6688 37.3215 13.4273 36.6873L9.94437 34.9078C8.97866 34.4144 8.5141 33.2928 8.84808 32.2611L10.0526 28.5401C10.482 27.2137 10.482 25.7858 10.0526 24.4595L8.84808 20.7384C8.5141 19.7066 8.97866 18.5851 9.94437 18.0917L13.4273 16.3123C14.6688 15.678 15.6785 14.6682 16.3128 13.4268L18.0922 9.94382ZM14.9277 25.964L24.2967 35.3331L39.9121 19.7179L36.7891 16.5948L24.2967 29.0871L18.0508 22.8408L14.9277 25.964Z" fill="url(#paint0_linear_0_16)"/>
</g>
<defs>
<linearGradient id="paint0_linear_0_16" x1="26.5003" y1="4.32259" x2="26.5003" y2="48.6768" gradientUnits="userSpaceOnUse">
<stop stop-color="#FF5E97"/>
<stop offset="1" stop-color="#F6904F"/>
</linearGradient>
</defs>
</svg>
