<svg preserveAspectRatio="none" width="100%" height="100%" overflow="visible" style="display: block;" viewBox="0 0 156 102" fill="none" xmlns="http://www.w3.org/2000/svg">
<g id="Vector">
<path d="M149.984 6.78466C136.57 11.862 117.733 25.7951 107.923 35.5415C96.2534 47.1289 91.3239 61.8562 69.7213 58.5232C68.347 59.466 69.8118 59.8668 70.9311 60.0004C75.4902 60.5646 80.716 58.6346 85.0283 58.5752C86.4356 58.5604 86.8882 58.4564 87.7852 59.6293C84.9789 62.4946 82.617 66.6589 79.6215 69.2941C71.1862 76.7171 57.5498 72.7087 47.9377 79.241C47.197 78.6545 46.7362 78.4244 46.7197 77.4372C46.6868 75.4626 58.1588 60.4607 60.3396 57.8403C78.815 35.6083 103.734 18.4388 132.2 7.79419L156 0C103.899 8.21731 64.117 38.6444 41.889 81.2155L36.1447 96.1432L33.5853 102C35.7826 99.0011 36.622 95.156 40.4899 93.3373C39.4365 92.9216 39.0168 92.3129 38.9016 91.682L42.1523 85.1645C44.9174 80.4286 51.9372 78.0607 57.3934 76.68C62.7427 75.3216 68.3634 75.5814 73.0296 74.4754C81.6048 72.4415 94.1384 52.4067 100.138 45.57C114.655 29.0241 132.093 16.249 152.716 6.28732C152.074 5.17386 150.733 6.50258 149.984 6.78466Z" fill="#F2709E"/>
<path d="M0 49.814H2.01984V88.5581H0V49.814ZM1.16294 51.5298V49.814H8.81386C11.4662 49.814 13.8125 50.2752 15.8527 51.1977C17.8929 52.0833 19.4843 53.3747 20.6269 55.0721C21.8102 56.7326 22.4019 58.762 22.4019 61.1605C22.4019 63.522 21.8102 65.5515 20.6269 67.2488C19.4843 68.9462 17.8929 70.2561 15.8527 71.1786C13.8125 72.0642 11.4662 72.507 8.81386 72.507H1.16294V70.8465H8.81386C12.2415 70.8465 15.0162 70.0163 17.1381 68.3558C19.3007 66.6584 20.382 64.26 20.382 61.1605C20.382 58.0609 19.3007 55.6809 17.1381 54.0205C15.0162 52.36 12.2415 51.5298 8.81386 51.5298H1.16294Z" fill="var(--fill-0, white)"/>
<path d="M49.872 88.5581V86.8423H70.8661V88.5581H49.872ZM49.872 51.5298V49.814H70.8661V51.5298H49.872ZM49.872 68.0237V66.3079H69.642V68.0237H49.872ZM48.9539 49.814H50.9738V88.5581H48.9539V49.814Z" fill="var(--fill-0, white)"/>
<path d="M131.906 49.814H133.926V89.7205L101.302 53.5777V88.5581H99.2826V48.6516L131.906 84.9605V49.814Z" fill="var(--fill-0, white)"/>
</g>
</svg>
